<?xml version="1.0" encoding="utf-8"?>
<!-- Generator: Adobe Illustrator 16.0.0, SVG Export Plug-In . SVG Version: 6.00 Build 0)  -->
<!DOCTYPE svg PUBLIC "-//W3C//DTD SVG 1.1//EN" "http://www.w3.org/Graphics/SVG/1.1/DTD/svg11.dtd">
<svg version="1.1" xmlns="http://www.w3.org/2000/svg" xmlns:xlink="http://www.w3.org/1999/xlink" x="0px" y="0px" width="100px"
	 height="100px" viewBox="0 0 100 100" enable-background="new 0 0 100 100" xml:space="preserve">
<g id="Captions">
</g>
<g id="Your_Icon">
	<g>
		<path d="M36.993,58.738c0,0,0.105,0,0.303,0c-0.102,0-0.202-0.014-0.303-0.025C36.993,58.72,36.993,58.731,36.993,58.738z"/>
		<path d="M67.572,0c-3.663,0-30.277,0-30.277,0c4.85,0,8.78,12.779,8.78,29c0,8-1.931,29-6.78,29c2.895,0,23.738,0,28.277,0
			c4.85,0,8.781-12.779,8.781-29S72.422,0,67.572,0z"/>
	</g>
	<path d="M39,77c0-8.285-0.068-16.13-4.732-18.262c4.443,0,8.113-11.043,8.696-25.371c-2.626,0.272-12.196,1.641-16.801,7.318
		c0.004,0.027-2.354,3.642-2.493,6.547C23.065,59.949,28,59.208,28,75c0,25-26.184,20.761-28,25h100C100,94.168,39,107.095,39,77z"
		/>
	<path d="M34.268,6.257C36.869,2.756,46-2,46,30c0,12.458,11.959-19.576,0.501-30H34.268c-4.85,0-8.781,13.148-8.781,29.369
		c0,2.547,0.098,5.019,0.279,7.375c1.208-1.049,2.62-1.992,4.234-2.821C30,33.923,30,12,34.268,6.257z"/>
	<path fill="#FFFFFF" d="M36.125,39.156c0,0-7.379,0.743-8.315,4.633c-0.936,3.889,3.526,2.443,5.095,0.197
		C33.913,42.543,36.125,39.156,36.125,39.156z"/>
</g>
</svg>
