<?xml version="1.0" encoding="utf-8"?>
<!-- Generator: Adobe Illustrator 16.0.0, SVG Export Plug-In . SVG Version: 6.00 Build 0)  -->
<!DOCTYPE svg PUBLIC "-//W3C//DTD SVG 1.1//EN" "http://www.w3.org/Graphics/SVG/1.1/DTD/svg11.dtd">
<svg version="1.1" xmlns="http://www.w3.org/2000/svg" xmlns:xlink="http://www.w3.org/1999/xlink" x="0px" y="0px" width="100px"
	 height="100px" viewBox="0 0 100 100" enable-background="new 0 0 100 100" xml:space="preserve">
<g id="Captions">
</g>
<g id="Your_Icon">
	<path d="M50,100C25.187,100,5,79.813,5,55C5,31.941,16.9,0,43,0l1,4c-12.52,0-19.744,9.855-24.438,17.283
		C13.574,30.756,11,43.36,11,55c0,22.056,16.944,37,39,37s39-14.944,39-37c0-11.64-2.574-24.244-8.562-33.717
		C75.744,13.855,68.52,4,56,4l1-4c26.1,0,38,31.941,38,55C95,79.813,74.813,100,50,100z"/>
	<path d="M33,56c5.514,0,10,3.486,10,9s-4.486,10-10,10s-10-4.486-10-10S27.486,56,33,56 M33,50c-8.284,0-16,6.716-16,15
		s7.716,15,16,15s16-6.716,16-15S41.284,50,33,50L33,50z"/>
	<path d="M57,16c5.514,0,9,3.486,9,9s-3.486,10-9,10s-10-4.486-10-10S51.486,16,57,16 M58,10c-8.284,0-16,6.716-16,15
		s6.716,15,15,15s15-7.716,15-16s-6.716-14-15-14H58z"/>
	<path d="M40,37c0,5.522-5.478,10-11,10s-11-4.478-11-10c0-5.523,4.478-10,10-10S40,31.477,40,37z"/>
	<path d="M53,46c0,2.762-3.238,6-6,6s-5-3.238-5-6s2.238-5,5-5S53,43.238,53,46z"/>
	<path d="M40,19c0,2.762-3.238,5-6,5s-7-2.238-7-5s4.238-7,7-7S40,16.238,40,19z"/>
	<path d="M76,65c0,2.762-3.238,5-6,5s-5-2.238-5-5s2.238-5,5-5S76,62.238,76,65z"/>
	<path d="M63,61c0,2.762-3.238,6-6,6s-5-4.238-5-7s2.238-4,5-4S63,58.238,63,61z"/>
	<path d="M20.5,50c0,1.381-1.119,2.5-2.5,2.5s-3.5-1.119-3.5-2.5s2.119-3.5,3.5-3.5S20.5,48.619,20.5,50z"/>
	<path d="M80.5,31c0,1.381-2.119,2.5-3.5,2.5s-2.5-1.119-2.5-2.5s1.119-3.5,2.5-3.5S80.5,29.619,80.5,31z"/>
	<path d="M61.5,49c0,1.381-2.119,3.5-3.5,3.5s-2.5-2.119-2.5-3.5s1.119-4.5,2.5-4.5S61.5,47.619,61.5,49z"/>
	<path d="M84.5,63c0,1.381-2.119,4.5-3.5,4.5s-2.5-3.119-2.5-4.5s1.119-3.5,2.5-3.5S84.5,61.619,84.5,63z"/>
	<path d="M44.5,84c0,1.381-1.119,3.5-2.5,3.5s-3.5-1.119-3.5-2.5s2.119-3.5,3.5-3.5S44.5,82.619,44.5,84z"/>
	<path d="M77.5,75c0,1.381-2.119,3.5-3.5,3.5s-3.5-2.119-3.5-3.5s2.119-2.5,3.5-2.5S77.5,73.619,77.5,75z"/>
	<path d="M42.498,8c1.381,0,3.5,0.119,3.5,1.5s-2.119,3.5-3.5,3.5s-2.5-2.119-2.5-3.5S41.117,8,42.498,8z"/>
	<path d="M67,80c0,5.522-4.478,8-10,8s-10-2.478-10-8c0-5.523,6.478-10,12-10S67,74.477,67,80z"/>
	<path d="M85,48c0,5.522-5.478,9-11,9s-10-4.478-10-10c0-5.523,4.478-11,10-11S85,42.477,85,48z"/>
</g>
</svg>
