<?xml version="1.0" encoding="utf-8"?>
<!-- Generator: Adobe Illustrator 16.0.0, SVG Export Plug-In . SVG Version: 6.00 Build 0)  -->
<!DOCTYPE svg PUBLIC "-//W3C//DTD SVG 1.1//EN" "http://www.w3.org/Graphics/SVG/1.1/DTD/svg11.dtd">
<svg version="1.1" id="Layer_1" xmlns="http://www.w3.org/2000/svg" xmlns:xlink="http://www.w3.org/1999/xlink" x="0px" y="0px"
	 width="500px" height="500px" viewBox="0 0 500 500" enable-background="new 0 0 500 500" xml:space="preserve">
<path fill="#EE7700" d="M250,0C111.929,0,0,111.929,0,250c0,138.07,111.929,250,250,250c138.071,0,250-111.93,250-250
	C500,111.929,388.071,0,250,0z M250,442.353c-106.233,0-192.353-86.118-192.353-192.353c0-106.234,86.12-192.353,192.353-192.353
	c106.233,0,192.353,86.12,192.353,192.353C442.353,356.232,356.233,442.353,250,442.353z"/>
<rect x="163.463" y="152.833" fill="none" width="307.035" height="300.502"/>
<text transform="matrix(1 0 0 1 163.4629 340.2715)" display="none" enable-background="new    " font-family="'Helvetica'" font-size="264">P</text>
<rect x="10" y="152.833" fill="none" width="500" height="300.502"/>
<g enable-background="new    ">
	<path d="M190.173,152.825h85.011c46.993,0,65.209,29.832,65.209,60.457s-18.216,60.458-65.209,60.458h-43.562v67.586h-41.449
		V152.825z M231.622,241.531h32.209c19.272,0,36.433-4.224,36.433-28.249c0-24.024-17.16-28.249-36.433-28.249h-32.209V241.531z"/>
</g>
</svg>
