<?xml version="1.0" encoding="utf-8"?>
<!-- Generator: Adobe Illustrator 16.0.0, SVG Export Plug-In . SVG Version: 6.00 Build 0)  -->
<!DOCTYPE svg PUBLIC "-//W3C//DTD SVG 1.1//EN" "http://www.w3.org/Graphics/SVG/1.1/DTD/svg11.dtd">
<svg version="1.1" xmlns="http://www.w3.org/2000/svg" xmlns:xlink="http://www.w3.org/1999/xlink" x="0px" y="0px" width="100px"
	 height="100px" viewBox="0 0 100 100" enable-background="new 0 0 100 100" xml:space="preserve">
<g id="Captions">
</g>
<g id="Your_Icon">
	<path d="M38.5,10C55.869,10,66,19.131,66,36.5S54.869,65,37.5,65S9,51.869,9,34.5S21.131,10,38.5,10 M36.5,0
		C16.342,0,0,18.342,0,38.5S14.342,74,34.5,74S76,58.658,76,38.5S56.658,0,36.5,0L36.5,0z"/>
	<path d="M99.751,83c0.069-0.461,0.13-0.923,0.168-1.394C99.962,81.076,100,80.543,100,80c0-0.675-0.035-1.342-0.101-2l0,0
		C98.961,68.553,91.448,61.039,82,60.101l0,0C81.342,60.035,80.675,60,80,60c-0.543,0-1.074,0.039-1.606,0.081
		c-0.471,0.037-0.933,0.099-1.394,0.168l0,0l0,0C68.029,61.603,61.006,68.891,60.101,78l0,0C60.035,78.658,60,79.325,60,80
		c0,0.543,0.038,1.076,0.081,1.606c0.038,0.471,0.099,0.933,0.168,1.394l0,0l0,0C61.552,91.637,68.362,98.448,77,99.751l0,0l0,0
		c0.461,0.069,0.923,0.131,1.394,0.168C78.926,99.961,79.457,100,80,100c0.675,0,1.342-0.035,2-0.101l0,0
		C91.11,98.994,98.397,91.97,99.751,83L99.751,83L99.751,83z M93,77l-11,1l1-11C89.671,67.895,92.105,70.329,93,77z M76,67l1,11
		l-10-1C67.85,70.664,69.803,68.263,76,67z M67,84l10-1l-1,10C70.131,91.805,68.195,89.869,67,84z M83,93l-1-10l11,1
		C91.737,90.197,89.336,92.15,83,93z"/>
</g>
</svg>
