<?xml version="1.0" encoding="utf-8"?>
<!-- Generator: Adobe Illustrator 16.0.0, SVG Export Plug-In . SVG Version: 6.00 Build 0)  -->
<!DOCTYPE svg PUBLIC "-//W3C//DTD SVG 1.1//EN" "http://www.w3.org/Graphics/SVG/1.1/DTD/svg11.dtd">
<svg version="1.1" xmlns="http://www.w3.org/2000/svg" xmlns:xlink="http://www.w3.org/1999/xlink" x="0px" y="0px" width="100px"
	 height="100px" viewBox="0 0 100 100" enable-background="new 0 0 100 100" xml:space="preserve">
<g id="Captions">
</g>
<g id="Your_Icon">
	<g>
		<path d="M50,61.138c0.137,0,0.337,0.037,0.515,0.214l16.202,16.202c0.284,0.284,0.284,0.746,0.001,1.03L50.515,94.787
			c-0.176,0.176-0.377,0.212-0.515,0.212s-0.339-0.036-0.515-0.212L33.282,78.584c-0.283-0.284-0.283-0.746,0-1.029l16.205-16.204
			C49.663,61.175,49.863,61.138,50,61.138 M50,56.138c-1.466,0-2.932,0.56-4.05,1.679L29.747,74.019
			c-2.236,2.237-2.237,5.863,0,8.101L45.95,98.322C47.068,99.44,48.534,100,50,100s2.932-0.56,4.05-1.678l16.203-16.203
			c2.236-2.236,2.237-5.862,0-8.101L54.05,57.816C52.932,56.697,51.466,56.138,50,56.138L50,56.138z"/>
	</g>
	<g>
		<path d="M50,5c0.138,0,0.338,0.037,0.515,0.213l16.203,16.203c0.176,0.176,0.213,0.377,0.213,0.515s-0.037,0.338-0.213,0.515
			L50.515,38.648c-0.176,0.176-0.377,0.213-0.515,0.213s-0.339-0.037-0.515-0.213L33.282,22.445c-0.283-0.284-0.283-0.746,0-1.029
			L49.486,5.213C49.662,5.037,49.862,5,50,5 M50,0c-1.466,0-2.932,0.56-4.05,1.678L29.747,17.88c-2.236,2.237-2.237,5.863,0,8.101
			L45.95,42.184c1.118,1.118,2.584,1.677,4.05,1.677s2.932-0.559,4.05-1.677l16.203-16.203c2.236-2.236,2.237-5.863,0-8.101
			L54.05,1.678C52.932,0.56,51.466,0,50,0L50,0z"/>
	</g>
	<path d="M82.119,70.253c-2.236,2.236-5.863,2.236-8.101,0L57.816,54.05c-2.238-2.237-2.237-5.863,0-8.101l16.202-16.202
		c2.237-2.237,5.864-2.237,8.101,0l16.203,16.202c2.237,2.238,2.236,5.864,0,8.101L82.119,70.253z"/>
	<path d="M25.981,70.253c-2.237,2.236-5.864,2.236-8.101,0L1.678,54.05c-2.237-2.237-2.236-5.863,0-8.101l16.203-16.202
		c2.236-2.237,5.863-2.237,8.101,0l16.202,16.202c2.238,2.238,2.237,5.864,0,8.101L25.981,70.253z"/>
</g>
</svg>
